<svg
  style="isolation:isolate"
  viewBox="0 0 1404.0065 333.33301"
  height="38"
  version="1.1"
  id="svg426"
>
  <g clip-path="url(#_clipPath_WMJ0N5pyHjKHT7SRCRoq75DPvDecAwxZ)" id="g424">
    <path
      d="m 1139.7027,208.44249 -3.4263,16.24459 h -51.8457 l 19.6084,-92.77516 h 51.9091 l -3.4264,16.11771 h -32.4909 l -4.2519,20.37051 h 30.2699 l -3.4898,16.11862 h -30.2699 l -5.0765,23.92373 z m 95.7584,-41.4388 v 0 0 q 0,17.7688 -6.2184,30.87294 v 0 0 q -6.2192,13.10413 -17.9904,19.95684 v 0 0 q -11.772,6.85361 -27.7628,6.85361 v 0 h -28.6197 l 19.6084,-92.77516 h 25.129 v 0 q 17.1345,0 26.4942,9.07381 v 0 0 q 9.3597,9.0747 9.3597,26.01796 z m -57.8103,41.4388 h 6.7268 v 0 q 9.3918,0 16.3723,-4.82281 v 0 0 q 6.9805,-4.82281 10.9143,-14.18341 v 0 0 q 3.9347,-9.35972 3.9347,-21.41673 v 0 0 q 0,-9.77249 -4.6003,-14.8812 v 0 0 q -4.6012,-5.10871 -13.231,-5.10871 v 0 h -7.2976 z m 106.1027,-19.48243 3.5532,-16.37145 h 35.727 l -10.2799,48.35494 v 0 q -8.5038,2.91888 -15.7693,3.96599 v 0 0 q -7.2664,1.04712 -15.3887,1.04712 v 0 0 q -16.4358,0 -25.3836,-9.32844 v 0 0 q -8.9478,-9.32845 -8.9478,-26.77918 v 0 0 q 0,-17.0067 6.7901,-30.74607 v 0 0 q 6.7902,-13.73848 19.101,-21.19426 v 0 0 q 12.3107,-7.45668 28.4293,-7.45668 v 0 0 q 13.8341,0 26.018,6.28269 v 0 l -7.2976,15.92742 v 0 q -4.696,-2.53827 -9.3919,-4.0607 v 0 0 q -4.696,-1.52332 -10.2165,-1.52332 v 0 0 q -9.7091,0 -17.3561,5.26685 v 0 0 q -7.647,5.26684 -11.9936,15.00806 v 0 0 q -4.3466,9.74032 -4.3466,20.97269 v 0 0 q 0,10.9152 4.6004,16.02301 v 0 0 q 4.6003,5.10871 14.1191,5.10871 v 0 0 q 4.8228,0 10.7883,-1.52332 v 0 l 4.1885,-18.97406 z m 104.0075,19.48243 -3.4263,16.24459 h -51.8457 l 19.6084,-92.77516 h 51.9091 l -3.4272,16.11771 h -32.4901 l -4.2519,20.37051 h 30.2698 l -3.4906,16.11862 h -30.269 l -5.0774,23.92373 z m -879.21256,16.24459 -1.52332,-22.08324 h -30.01613 l -10.9143,22.08324 h -20.30707 l 48.60957,-93.15666 h 23.66999 l 9.32755,93.15666 z m -23.60656,-38.58246 h 21.13083 l -1.6493,-22.21011 v 0 q -0.63434,-8.31349 -0.63434,-16.05518 v 0 -2.28453 0 q -2.79291,7.61481 -6.91704,16.11861 v 0 z m 102.61197,-37.82125 -16.11861,76.40371 h -19.35467 l 16.11772,-76.40371 h -22.33698 l 3.49069,-16.37145 h 64.09205 l -3.48979,16.37145 z m 108.25942,-16.37145 -19.6084,92.77516 h -19.41899 l 8.5038,-40.04146 h -29.88837 l -8.50379,40.04146 h -19.35466 l 19.6084,-92.77516 h 19.4181 l -7.67826,36.36135 h 29.88837 l 7.67914,-36.36135 z m 58.00056,76.53057 -3.42635,16.24459 h -51.84563 l 19.6084,-92.77516 h 51.90906 l -3.42725,16.11771 h -32.49007 l -4.25189,20.37051 h 30.26986 l -3.49068,16.11862 h -30.26897 l -5.07744,23.92373 z m 110.54396,-76.53057 -19.6084,92.77516 h -21.70263 l -22.59072,-70.18445 h -0.3815 l -0.25374,2.0308 v 0 q -2.03079,13.70721 -4.18757,24.49464 v 0 l -9.20157,43.65901 h -17.45163 l 19.6093,-92.77516 h 22.65415 l 21.57576,68.34395 h 0.25374 v 0 q 0.76121,-4.82281 2.47484,-13.77065 v 0 0 q 1.71362,-8.94694 11.42267,-54.5733 v 0 z m 54.32043,92.77516 -1.5233,-22.08324 h -30.0152 l -10.91521,22.08324 h -20.30618 l 48.60869,-93.15666 h 23.67 l 9.3284,93.15666 z m -23.6065,-38.58246 h 21.1317 l -1.6502,-22.21011 v 0 q -0.6343,-8.31349 -0.6343,-16.05518 v 0 -2.28453 0 q -2.792,7.61481 -6.9171,16.11861 v 0 z m 67.5193,-54.1927 h 17.5785 l -9.6456,33.50591 h -12.4386 z m 75.89618,65.36163 v 0 0 q 0,13.26228 -9.3919,20.97269 v 0 0 q -9.3918,7.71042 -25.447,7.71042 v 0 0 q -14.02348,0 -22.59068,-5.71178 v 0 -17.38731 0 q 12.2473,6.85361 22.71838,6.85361 v 0 0 q 7.1065,0 11.1046,-2.69731 v 0 0 q 3.9982,-2.69641 3.9982,-7.39235 v 0 0 q 0,-2.72857 -0.8568,-4.79153 v 0 0 q -0.8568,-2.06207 -2.4436,-3.83913 v 0 0 q -1.5858,-1.77617 -7.8685,-6.4721 v 0 0 q -8.75668,-6.2827 -12.31078,-12.43852 v 0 0 q -3.5532,-6.15493 -3.5532,-13.26228 v 0 0 q 0,-8.18662 3.9338,-14.62745 v 0 0 q 3.9347,-6.44083 11.20018,-10.02622 v 0 0 q 7.2664,-3.58539 16.7217,-3.58539 v 0 0 q 13.7707,0 25.1924,6.28269 v 0 l -6.917,14.7856 v 0 q -9.8994,-4.69594 -18.2754,-4.69594 v 0 0 q -5.2668,0 -8.6307,2.85544 v 0 0 q -3.3629,2.85545 -3.3629,7.55139 v 0 0 q 0,3.87129 2.0943,6.7589 v 0 0 q 2.0942,2.88671 9.3918,7.64608 v 0 0 q 7.6783,5.07655 11.4852,11.20021 v 0 0 q 3.8079,6.12366 3.8079,14.31028 z"
      fill="white"
      id="path420"
    />
    <path
      d="M 373.141,333.333 H 840.106 V 274.966 H 385.403 323.404 v 0 H 269.141 L 287.307,189.01 H 395.621 L 408.11,131.099 H 299.796 L 315.01,57.912 H 431.271 L 443.533,0 H 257.788 V 0 0 H 173.933 L 0,333.333 h 72.661 l 39.056,-79.019 h 92.539 v 0 l -16.634,79.019 h 36.947 v 0 0 h 22.183 v 0 h 76.652 z M 140.1,195.277 h 75.613 l -5.904,-79.473 v 0 q -2.27,-29.746 -2.27,-57.448 v 0 -8.174 0 q -9.991,27.248 -24.751,57.674 v 0 z"
      fill-rule="evenodd"
      fill="rgb(198, 160, 246)"
      id="path422"
    />
  </g>
</svg>

